<svg width="430" height="249" viewBox="0 0 430 249" fill="none" xmlns="http://www.w3.org/2000/svg">
<g filter="url(#filter0_d_98_18)">
<path fill-rule="evenodd" clip-rule="evenodd" d="M430 58.5L405 44C387.083 38 358.333 27 322.5 69C286.667 111 250.833 138 215 138C179.167 138 143.333 111 107.5 111C71.6666 111 35.8333 122.5 17.9166 170.5L-3.05176e-05 218.5V-21H17.9166C35.8333 -21 71.6666 -21 107.5 -21C143.333 -21 179.167 -21 215 -21C250.833 -21 286.667 -21 322.5 -21C358.333 -21 394.167 -21 412.083 -21H430V58.5Z" fill="url(#paint0_linear_98_18)"/>
<path fill-rule="evenodd" clip-rule="evenodd" d="M430 58.5L405 44C387.083 38 358.333 27 322.5 69C286.667 111 250.833 138 215 138C179.167 138 143.333 111 107.5 111C71.6666 111 35.8333 122.5 17.9166 170.5L-3.05176e-05 218.5V-21H17.9166C35.8333 -21 71.6666 -21 107.5 -21C143.333 -21 179.167 -21 215 -21C250.833 -21 286.667 -21 322.5 -21C358.333 -21 394.167 -21 412.083 -21H430V58.5Z" stroke="black"/>
</g>
<defs>
<filter id="filter0_d_98_18" x="-20" y="-31" width="470" height="279.5" filterUnits="userSpaceOnUse" color-interpolation-filters="sRGB">
<feFlood flood-opacity="0" result="BackgroundImageFix"/>
<feColorMatrix in="SourceAlpha" type="matrix" values="0 0 0 0 0 0 0 0 0 0 0 0 0 0 0 0 0 0 127 0" result="hardAlpha"/>
<feOffset dy="10"/>
<feGaussianBlur stdDeviation="10"/>
<feComposite in2="hardAlpha" operator="out"/>
<feColorMatrix type="matrix" values="0 0 0 0 0.192157 0 0 0 0 0.431373 0 0 0 0 0.513726 0 0 0 0.5 0"/>
<feBlend mode="normal" in2="BackgroundImageFix" result="effect1_dropShadow_98_18"/>
<feBlend mode="normal" in="SourceGraphic" in2="effect1_dropShadow_98_18" result="shape"/>
</filter>
<linearGradient id="paint0_linear_98_18" x1="-519" y1="99" x2="489.5" y2="66.5" gradientUnits="userSpaceOnUse">
<stop stop-color="#0B181D"/>
<stop offset="1" stop-color="#316E83"/>
</linearGradient>
</defs>
</svg>
