<svg width="24px"  height="24px"  viewBox="0 0 25 24" fill="none" xmlns="http://www.w3.org/2000/svg">
<path fill-rule="evenodd" clip-rule="evenodd" d="M20.425 11.0001H12.198C12.132 9.0921 11.879 7.3711 11.436 6.9271C10.873 6.3641 9.93995 6.6501 9.18795 6.9611C7.61695 7.6111 3.07495 10.3571 3.07495 12.0071C3.07495 13.7101 7.82195 16.4451 9.26295 17.0421C9.71395 17.2291 10.196 17.3941 10.624 17.3941C10.933 17.3941 11.214 17.3091 11.437 17.0851C11.881 16.6391 12.134 14.9121 12.199 13.0001H20.425C20.978 13.0001 21.425 12.5531 21.425 12.0001C21.425 11.4471 20.978 11.0001 20.425 11.0001Z" fill="#316E83" />
</svg>