
<svg width="86" height="77" viewBox="0 0 86 77" fill="none" xmlns="http://www.w3.org/2000/svg">
<path d="M44.5733 56.9353C41.9303 56.9353 39.3956 57.8791 37.5267 59.5591C35.6579 61.2392 34.608 63.5177 34.608 65.8936C34.608 68.2695 35.6579 70.5481 37.5267 72.2281C39.3956 73.9081 41.9303 74.852 44.5733 74.852C47.2162 74.852 49.751 73.9081 51.6198 72.2281C53.4887 70.5481 54.5386 68.2695 54.5386 65.8936C54.5386 63.5177 53.4887 61.2392 51.6198 59.5591C49.751 57.8791 47.2162 56.9353 44.5733 56.9353ZM38.5941 65.8936C38.5941 64.4681 39.224 63.1009 40.3454 62.0929C41.4667 61.0849 42.9875 60.5186 44.5733 60.5186C46.1591 60.5186 47.6799 61.0849 48.8012 62.0929C49.9225 63.1009 50.5525 64.4681 50.5525 65.8936C50.5525 67.3192 49.9225 68.6863 48.8012 69.6943C47.6799 70.7023 46.1591 71.2686 44.5733 71.2686C42.9875 71.2686 41.4667 70.7023 40.3454 69.6943C39.224 68.6863 38.5941 67.3192 38.5941 65.8936Z" fill="#2C3E54"/>
<path d="M43.7866 64.3008C42.4651 64.3008 41.1978 64.7727 40.2633 65.6127C39.3289 66.4527 38.8039 67.592 38.8039 68.7799C38.8039 69.9679 39.3289 71.1072 40.2633 71.9472C41.1978 72.7872 42.4651 73.2591 43.7866 73.2591C45.1081 73.2591 46.3755 72.7872 47.3099 71.9472C48.2443 71.1072 48.7693 69.9679 48.7693 68.7799C48.7693 67.592 48.2443 66.4527 47.3099 65.6127C46.3755 64.7727 45.1081 64.3008 43.7866 64.3008ZM40.797 68.7799C40.797 68.0672 41.112 67.3836 41.6726 66.8796C42.2333 66.3756 42.9937 66.0924 43.7866 66.0924C44.5795 66.0924 45.3399 66.3756 45.9006 66.8796C46.4612 67.3836 46.7762 68.0672 46.7762 68.7799C46.7762 69.4927 46.4612 70.1763 45.9006 70.6803C45.3399 71.1843 44.5795 71.4674 43.7866 71.4674C42.9937 71.4674 42.2333 71.1843 41.6726 70.6803C41.112 70.1763 40.797 69.4927 40.797 68.7799Z" fill="#2C3E54"/>
<path d="M76.8492 49.5747C73.8544 50.5112 70.8983 50.2921 67.9808 49.4751C67.0727 49.2161 66.9954 48.9571 67.2273 47.901C65.4111 46.7453 63.6915 45.4701 62.6096 43.1189C63.9427 42.7204 64.8122 43.7764 65.9135 43.9757C66.2612 42.8001 66.609 41.6245 66.9375 40.4488C68.5025 34.8298 70.0289 29.2108 71.5939 23.6118C71.7871 22.9144 71.5939 22.5159 71.2654 21.8583C70.6858 20.7226 70.0289 21.0414 69.2947 21.1808C64.1359 22.1971 59.0738 21.5993 54.089 19.8658C51.2488 18.8894 48.3892 18.1322 45.3172 18.3713V55.5524C45.5297 55.5325 45.7616 55.5126 46.1094 55.4727C46.2639 56.3893 46.3992 57.3058 46.5537 58.3021C47.1913 58.3021 45.0853 58.2102 45.3172 58.9873C42.6895 58.7112 45.3945 59.2862 45.3172 58.9873C46.5151 59.067 44.1193 60.0954 45.3172 60.1353C47.114 60.215 45.008 58.9964 46.5537 60.1122C35.2895 57.7411 44.1852 59.7368 44.5716 60.1353L41.8974 59.2829C46.4015 57.8284 47.5463 59.2829 41.8974 59.2829C44.0806 57.7885 39.8522 58.3954 42.2674 58.5748C46.1316 57.2003 42.2674 58.5748 39.1344 60.1951C39.6948 60.1951 40.1585 59.8962 40.313 59.2386C40.4676 58.5412 40.854 58.3619 41.4723 58.3818C41.6075 57.4055 41.7428 56.449 41.8974 55.4328C42.1679 55.4926 42.3804 55.5325 42.6316 55.5923V18.1123C41.3757 18.2319 40.1198 18.2319 38.9219 18.5308C36.4102 19.1484 33.9371 20.0052 31.4253 20.6628C27.0394 21.7985 22.6342 22.0974 18.1904 21.0812C17.5528 20.9417 17.2823 21.2008 16.8186 21.7188C15.9878 22.6553 16.3742 23.4922 16.6254 24.4088C18.3836 30.8647 20.1611 37.3405 21.9194 43.7963C21.9194 43.8561 21.9773 43.896 22.0739 44.0554C22.6342 43.8163 23.2139 43.5772 23.7935 43.3181C24.006 43.2384 24.1992 43.079 24.4118 43.0591C24.663 43.0192 24.9141 43.0989 25.1653 43.1189C25.1073 43.3978 25.1267 43.7366 24.9914 43.9557C23.9288 45.8287 22.3444 46.9645 20.6635 48.0405C21.0499 48.8176 20.6635 49.2958 20.0839 49.4153C18.4222 49.7142 16.7413 50.0928 15.0604 50.0928C13.5727 50.0928 12.0656 49.6744 10.5779 49.3556C9.94029 49.2161 9.51523 48.7976 9.99826 47.9807C8.24004 46.6258 6.30793 45.5896 5.39984 42.9595C6.71367 42.8001 7.58312 43.9557 8.72307 43.9757C9.24473 42.023 9.74708 40.0703 10.2881 38.1176C11.6212 33.2557 12.9737 28.3939 14.3455 23.552C14.5387 22.8944 14.4807 22.4561 13.9977 21.9978C13.3794 21.42 13.1476 20.5831 13.3601 19.6864C13.5727 18.8097 14.075 18.192 14.8672 17.9728C15.698 17.7337 16.4129 18.0924 16.8766 18.8695C17.2243 19.4673 17.6301 19.6267 18.2097 19.6665C21.6875 19.9853 25.1846 20.2643 28.6431 19.4274C31.3481 18.7699 33.995 17.7935 36.6807 16.9766C38.3616 16.4585 40.0619 16.0002 41.7428 15.5021C41.8974 15.4622 42.0713 15.4024 42.3417 15.3028C42.0519 14.446 41.8394 13.5892 41.5109 12.8121C40.7574 11.0786 40.8154 9.40485 41.5882 7.73111C41.6848 7.51193 41.7621 7.2529 41.8974 7.05364C42.8634 5.41975 43.4044 3.68622 43.1532 1.67375C43.1146 1.35494 43.2112 0.996277 43.2692 0.657543C43.3464 0.219181 43.559 0 43.984 0C44.3898 0 44.6603 0.139479 44.7182 0.617692C44.7955 1.23538 44.8728 1.873 44.8342 2.49069C44.7376 3.88548 45.0274 5.18064 45.7229 6.29647C47.2686 8.74731 47.3652 11.2779 46.148 13.928C45.9741 14.3265 45.8582 14.7648 45.665 15.2829C46.8049 15.5618 47.8869 15.7611 48.9302 16.1198C51.4033 16.9367 53.8571 17.8931 56.3302 18.7101C60.1751 19.9654 64.1166 20.1846 68.0967 19.8857C68.5218 19.8458 68.9275 19.8458 69.3526 19.7861C70.0868 19.7064 70.763 19.6267 71.2847 18.7499C71.9996 17.5743 73.2748 17.674 74.1056 18.7101C74.9557 19.7861 74.9171 21.2008 73.951 22.0775C73.5453 22.4362 73.3907 22.735 73.5646 23.3527C75.4774 30.1872 77.3709 37.0217 79.2836 43.8561C79.2836 43.896 79.3416 43.9358 79.4575 44.0753C80.1145 43.7764 80.81 43.4177 81.5249 43.1388C81.7954 43.0392 82.1238 43.079 82.4137 43.0591C82.3364 43.3978 82.3364 43.7764 82.1818 44.0554C81.1578 45.8885 79.6121 46.9844 77.9698 47.9608C78.0729 48.6914 77.6993 49.2426 76.8492 49.6146M15.7173 39.612V45.3705C17.6494 45.0716 19.4076 44.7926 21.3011 44.4937C19.4656 37.8386 17.7074 31.4425 15.9491 25.0464C15.8719 25.0464 15.7946 25.0663 15.7173 25.0863C15.7173 29.8684 15.7173 34.6704 15.7173 39.6319M14.9058 33.8136V25.146C14.9058 25.146 14.8092 25.1261 14.7512 25.1062C12.993 31.5023 11.2348 37.8984 9.45727 44.3742C11.3121 44.952 13.0703 45.2908 14.9058 45.2111C14.9058 41.4053 14.9058 37.6991 14.9058 33.8136ZM75.5933 33.7339C74.8205 30.9643 74.0476 28.1946 73.2748 25.425C73.2168 25.425 73.1589 25.4449 73.1009 25.4648V45.3306C74.9364 45.0516 76.714 44.7926 78.5688 44.5137C77.5448 40.7876 76.5787 37.3405 75.574 33.7539M71.7291 45.2111C72.1542 45.2908 72.2701 45.0716 72.2314 44.5934C72.1735 43.5971 72.1542 42.6008 72.1542 41.6045C72.1542 36.5235 72.1928 31.4425 72.2121 26.3814C72.2121 26.0427 72.1735 25.7039 72.1735 25.3652H71.9803C70.2414 31.7015 68.5025 38.0379 66.7056 44.5734C68.4445 44.8125 70.0095 45.0118 71.7291 45.231V45.2111Z" fill="#2C3E54"/>
<path d="M15.7269 39.4947C15.7269 34.6129 15.7269 29.8308 15.7269 25.0486C15.8042 25.0486 15.8814 25.0287 15.9587 25.0088C17.7169 31.4049 19.4752 37.8209 21.3107 44.4561C19.4172 44.755 17.6783 45.034 15.7269 45.3328C15.7269 43.2606 15.7269 41.4075 15.7269 39.4947Z" fill="#2C3E54"/>
<path d="M14.9294 33.8405C14.9294 37.6264 14.9294 41.3325 14.9294 45.1383C13.0939 45.218 11.3357 44.8793 9.48083 44.3014C11.2584 37.8456 13.0166 31.4495 14.7748 25.0334C14.8328 25.0334 14.8714 25.0534 14.9294 25.0733C14.9294 27.9625 14.9294 30.8517 14.9294 33.8206V33.8405Z" fill="#2C3E54"/>
<path d="M75.6522 33.7331C76.6376 37.26 77.6036 40.727 78.6277 44.4331C76.7535 44.7121 74.9953 44.9711 73.1598 45.2501V25.3843C73.1598 25.3843 73.2757 25.3644 73.3337 25.3445C74.1065 28.1141 74.8794 30.8838 75.6715 33.7132L75.6522 33.7331Z" fill="#2C3E54"/>
<path d="M71.7107 45.131C70.0684 44.9119 68.484 44.7126 66.7645 44.4735C68.5613 37.9379 70.3002 31.6016 72.0391 25.2454H72.2323C72.2323 25.604 72.271 25.9428 72.271 26.2815C72.2516 31.3625 72.2323 36.4435 72.213 41.5046C72.213 42.5009 72.2323 43.4972 72.2903 44.4934C72.3096 44.9716 72.213 45.1908 71.7107 45.1111V45.131Z" fill="#2C3E54"/>
<path d="M82.3788 61.2347C79.3006 60.7693 76.1836 60.5298 73.0601 60.5186C62.4032 60.5109 51.9686 63.193 43 68.2452C34.0314 63.193 23.5968 60.5109 12.9399 60.5186C9.81641 60.5298 6.69942 60.7693 3.62125 61.2347C3.06225 61.3126 2.5263 61.4866 2.04422 61.7469C1.56214 62.0072 1.14344 62.3486 0.812202 62.7514C0.480963 63.1542 0.243717 63.6105 0.114108 64.0941C-0.015501 64.5777 -0.0349165 65.079 0.0569778 65.5692C0.275209 66.5479 0.926533 67.4109 1.86827 67.969C2.81001 68.5271 3.96539 68.7349 5.08131 68.5468C11.2351 67.6116 17.5399 67.7668 23.6244 69.0031C29.7088 70.2395 35.4499 72.532 40.5093 75.7458C41.2366 76.2002 42.1072 76.4445 43 76.4445C43.8928 76.4445 44.7634 76.2002 45.4907 75.7458C50.5501 72.532 56.2912 70.2395 62.3756 69.0031C68.4601 67.7668 74.7649 67.6116 80.9187 68.5468C82.0346 68.7349 83.19 68.5271 84.1317 67.969C85.0735 67.4109 85.7248 66.5479 85.943 65.5692C86.0349 65.079 86.0155 64.5777 85.8859 64.0941C85.7563 63.6105 85.519 63.1542 85.1878 62.7514C84.8566 62.3486 84.4379 62.0072 83.9558 61.7469C83.4737 61.4866 82.9378 61.3126 82.3788 61.2347Z" fill="#2C3E54"/>
<path d="M44.5733 56.9353C41.9303 56.9353 39.3956 57.8791 37.5267 59.5591C35.6579 61.2392 34.608 63.5177 34.608 65.8936C34.608 68.2695 35.6579 70.5481 37.5267 72.2281C39.3956 73.9081 41.9303 74.852 44.5733 74.852C47.2162 74.852 49.751 73.9081 51.6198 72.2281C53.4887 70.5481 54.5386 68.2695 54.5386 65.8936C54.5386 63.5177 53.4887 61.2392 51.6198 59.5591C49.751 57.8791 47.2162 56.9353 44.5733 56.9353ZM38.5941 65.8936C38.5941 64.4681 39.224 63.1009 40.3454 62.0929C41.4667 61.0849 42.9875 60.5186 44.5733 60.5186C46.1591 60.5186 47.6799 61.0849 48.8012 62.0929C49.9225 63.1009 50.5525 64.4681 50.5525 65.8936C50.5525 67.3192 49.9225 68.6863 48.8012 69.6943C47.6799 70.7023 46.1591 71.2686 44.5733 71.2686C42.9875 71.2686 41.4667 70.7023 40.3454 69.6943C39.224 68.6863 38.5941 67.3192 38.5941 65.8936Z" fill="#2C3E54"/>
<path d="M43.7866 64.3008C42.4651 64.3008 41.1978 64.7727 40.2633 65.6127C39.3289 66.4527 38.8039 67.592 38.8039 68.7799C38.8039 69.9679 39.3289 71.1072 40.2633 71.9472C41.1978 72.7872 42.4651 73.2591 43.7866 73.2591C45.1081 73.2591 46.3755 72.7872 47.3099 71.9472C48.2443 71.1072 48.7693 69.9679 48.7693 68.7799C48.7693 67.592 48.2443 66.4527 47.3099 65.6127C46.3755 64.7727 45.1081 64.3008 43.7866 64.3008ZM40.797 68.7799C40.797 68.0672 41.112 67.3836 41.6726 66.8796C42.2333 66.3756 42.9937 66.0924 43.7866 66.0924C44.5795 66.0924 45.3399 66.3756 45.9006 66.8796C46.4612 67.3836 46.7762 68.0672 46.7762 68.7799C46.7762 69.4927 46.4612 70.1763 45.9006 70.6803C45.3399 71.1843 44.5795 71.4674 43.7866 71.4674C42.9937 71.4674 42.2333 71.1843 41.6726 70.6803C41.112 70.1763 40.797 69.4927 40.797 68.7799Z" fill="#2C3E54"/>
<path d="M76.8492 49.5747C73.8544 50.5112 70.8983 50.2921 67.9808 49.4751C67.0727 49.2161 66.9954 48.9571 67.2273 47.901C65.4111 46.7453 63.6915 45.4701 62.6096 43.1189C63.9427 42.7204 64.8122 43.7764 65.9135 43.9757C66.2612 42.8001 66.609 41.6245 66.9375 40.4488C68.5025 34.8298 70.0289 29.2108 71.5939 23.6118C71.7871 22.9144 71.5939 22.5159 71.2654 21.8583C70.6858 20.7226 70.0289 21.0414 69.2947 21.1808C64.1359 22.1971 59.0738 21.5993 54.089 19.8658C51.2488 18.8894 48.3892 18.1322 45.3172 18.3713V55.5524C45.5297 55.5325 45.7616 55.5126 46.1094 55.4727C46.2639 56.3893 46.3992 57.3058 46.5537 58.3021C47.1913 58.3021 45.0853 58.2102 45.3172 58.9873C42.6895 58.7112 45.3945 59.2862 45.3172 58.9873C46.5151 59.067 44.1193 60.0954 45.3172 60.1353C47.114 60.215 45.008 58.9964 46.5537 60.1122C35.2895 57.7411 44.1852 59.7368 44.5716 60.1353L41.8974 59.2829C46.4015 57.8284 47.5463 59.2829 41.8974 59.2829C44.0806 57.7885 39.8522 58.3954 42.2674 58.5748C46.1316 57.2003 42.2674 58.5748 39.1344 60.1951C39.6948 60.1951 40.1585 59.8962 40.313 59.2386C40.4676 58.5412 40.854 58.3619 41.4723 58.3818C41.6075 57.4055 41.7428 56.449 41.8974 55.4328C42.1679 55.4926 42.3804 55.5325 42.6316 55.5922V18.1123C41.3757 18.2319 40.1198 18.2319 38.9219 18.5308C36.4102 19.1484 33.9371 20.0052 31.4253 20.6628C27.0394 21.7985 22.6342 22.0974 18.1904 21.0812C17.5528 20.9417 17.2823 21.2008 16.8186 21.7188C15.9878 22.6553 16.3742 23.4922 16.6254 24.4088C18.3836 30.8647 20.1611 37.3405 21.9194 43.7963C21.9194 43.8561 21.9773 43.896 22.0739 44.0554C22.6342 43.8163 23.2139 43.5771 23.7935 43.3181C24.006 43.2384 24.1992 43.079 24.4118 43.0591C24.663 43.0192 24.9141 43.0989 25.1653 43.1189C25.1073 43.3978 25.1267 43.7366 24.9914 43.9557C23.9288 45.8287 22.3444 46.9645 20.6635 48.0405C21.0499 48.8176 20.6635 49.2958 20.0839 49.4153C18.4222 49.7142 16.7413 50.0928 15.0604 50.0928C13.5727 50.0928 12.0656 49.6744 10.5779 49.3556C9.94029 49.2161 9.51523 48.7976 9.99826 47.9807C8.24004 46.6258 6.30793 45.5896 5.39984 42.9595C6.71367 42.8001 7.58312 43.9557 8.72307 43.9757C9.24474 42.023 9.74708 40.0703 10.2881 38.1176C11.6212 33.2557 12.9737 28.3939 14.3455 23.552C14.5387 22.8944 14.4807 22.4561 13.9977 21.9978C13.3794 21.42 13.1476 20.5831 13.3601 19.6864C13.5727 18.8097 14.075 18.192 14.8672 17.9728C15.698 17.7337 16.4129 18.0924 16.8766 18.8695C17.2243 19.4673 17.6301 19.6267 18.2097 19.6665C21.6875 19.9853 25.1846 20.2643 28.6431 19.4274C31.3481 18.7699 33.995 17.7935 36.6807 16.9766C38.3616 16.4585 40.0619 16.0002 41.7428 15.5021C41.8974 15.4622 42.0713 15.4024 42.3417 15.3028C42.0519 14.446 41.8394 13.5892 41.5109 12.8121C40.7574 11.0786 40.8154 9.40485 41.5882 7.73111C41.6848 7.51193 41.7621 7.2529 41.8974 7.05364C42.8634 5.41975 43.4044 3.68622 43.1532 1.67375C43.1146 1.35494 43.2112 0.996277 43.2692 0.657543C43.3464 0.219181 43.559 0 43.984 0C44.3898 0 44.6603 0.139479 44.7182 0.617692C44.7955 1.23538 44.8728 1.873 44.8342 2.49069C44.7376 3.88548 45.0274 5.18064 45.7229 6.29647C47.2686 8.74731 47.3652 11.2779 46.148 13.928C45.9741 14.3265 45.8582 14.7648 45.665 15.2829C46.8049 15.5618 47.8869 15.7611 48.9302 16.1198C51.4033 16.9367 53.8571 17.8931 56.3302 18.7101C60.1751 19.9654 64.1166 20.1846 68.0967 19.8857C68.5218 19.8458 68.9275 19.8458 69.3526 19.7861C70.0868 19.7064 70.763 19.6267 71.2847 18.7499C71.9996 17.5743 73.2748 17.674 74.1056 18.7101C74.9557 19.7861 74.9171 21.2008 73.951 22.0775C73.5453 22.4362 73.3907 22.735 73.5646 23.3527C75.4774 30.1872 77.3709 37.0217 79.2836 43.8561C79.2836 43.896 79.3416 43.9358 79.4575 44.0753C80.1145 43.7764 80.81 43.4177 81.5249 43.1388C81.7954 43.0392 82.1238 43.079 82.4137 43.0591C82.3364 43.3978 82.3364 43.7764 82.1818 44.0554C81.1578 45.8885 79.6121 46.9844 77.9698 47.9608C78.0729 48.6914 77.6993 49.2426 76.8492 49.6146M15.7173 39.612V45.3705C17.6494 45.0716 19.4076 44.7926 21.3011 44.4937C19.4656 37.8386 17.7074 31.4425 15.9491 25.0464C15.8719 25.0464 15.7946 25.0663 15.7173 25.0863C15.7173 29.8684 15.7173 34.6704 15.7173 39.6319M14.9058 33.8136V25.146C14.9058 25.146 14.8092 25.1261 14.7512 25.1062C12.993 31.5023 11.2348 37.8984 9.45727 44.3742C11.3121 44.952 13.0703 45.2908 14.9058 45.211C14.9058 41.4053 14.9058 37.6991 14.9058 33.8136ZM75.5933 33.7339C74.8205 30.9643 74.0476 28.1946 73.2748 25.425C73.2168 25.425 73.1589 25.4449 73.1009 25.4648V45.3306C74.9364 45.0516 76.714 44.7926 78.5688 44.5137C77.5448 40.7876 76.5787 37.3405 75.574 33.7539M71.7291 45.211C72.1542 45.2908 72.2701 45.0716 72.2314 44.5933C72.1735 43.5971 72.1542 42.6008 72.1542 41.6045C72.1542 36.5235 72.1928 31.4425 72.2121 26.3814C72.2121 26.0427 72.1735 25.7039 72.1735 25.3652H71.9803C70.2414 31.7015 68.5025 38.0379 66.7056 44.5734C68.4445 44.8125 70.0095 45.0118 71.7291 45.231V45.211Z" fill="#2C3E54"/>
<path d="M15.7269 39.4947C15.7269 34.6129 15.7269 29.8308 15.7269 25.0486C15.8042 25.0486 15.8814 25.0287 15.9587 25.0088C17.7169 31.4049 19.4752 37.8209 21.3107 44.4561C19.4172 44.755 17.6783 45.034 15.7269 45.3328C15.7269 43.2606 15.7269 41.4075 15.7269 39.4947Z" fill="#2C3E54"/>
<path d="M14.9294 33.8405C14.9294 37.6264 14.9294 41.3325 14.9294 45.1383C13.0939 45.218 11.3357 44.8793 9.48083 44.3014C11.2584 37.8456 13.0166 31.4495 14.7748 25.0334C14.8328 25.0334 14.8714 25.0534 14.9294 25.0733C14.9294 27.9625 14.9294 30.8517 14.9294 33.8206V33.8405Z" fill="#2C3E54"/>
<path d="M75.6522 33.7331C76.6376 37.26 77.6036 40.727 78.6277 44.4331C76.7535 44.7121 74.9953 44.9711 73.1598 45.2501V25.3843C73.1598 25.3843 73.2757 25.3644 73.3337 25.3445C74.1065 28.1141 74.8794 30.8838 75.6715 33.7132L75.6522 33.7331Z" fill="#2C3E54"/>
<path d="M71.7107 45.131C70.0684 44.9119 68.484 44.7126 66.7645 44.4735C68.5613 37.9379 70.3002 31.6016 72.0391 25.2454H72.2323C72.2323 25.604 72.271 25.9428 72.271 26.2815C72.2516 31.3625 72.2323 36.4435 72.213 41.5046C72.213 42.5009 72.2323 43.4972 72.2903 44.4934C72.3096 44.9716 72.213 45.1908 71.7107 45.1111V45.131Z" fill="#2C3E54"/>
<path d="M82.3788 61.2347C79.3006 60.7693 76.1836 60.5298 73.0601 60.5186C62.4032 60.5109 51.9686 63.193 43 68.2452C34.0314 63.193 23.5968 60.5109 12.9399 60.5186C9.81641 60.5298 6.69942 60.7693 3.62125 61.2347C3.06225 61.3126 2.5263 61.4866 2.04422 61.7469C1.56214 62.0072 1.14344 62.3486 0.812202 62.7514C0.480963 63.1542 0.243717 63.6105 0.114108 64.0941C-0.015501 64.5777 -0.0349165 65.079 0.0569778 65.5692C0.275209 66.5479 0.926533 67.4109 1.86827 67.969C2.81001 68.5271 3.96539 68.7349 5.08131 68.5468C11.2351 67.6116 17.5399 67.7668 23.6244 69.0031C29.7088 70.2395 35.4499 72.532 40.5093 75.7458C41.2366 76.2002 42.1072 76.4445 43 76.4445C43.8928 76.4445 44.7634 76.2002 45.4907 75.7458C50.5501 72.532 56.2912 70.2395 62.3756 69.0031C68.4601 67.7668 74.7649 67.6116 80.9187 68.5468C82.0346 68.7349 83.19 68.5271 84.1317 67.969C85.0735 67.4109 85.7248 66.5479 85.943 65.5692C86.0349 65.079 86.0155 64.5777 85.8859 64.0941C85.7563 63.6105 85.519 63.1542 85.1878 62.7514C84.8566 62.3486 84.4379 62.0072 83.9558 61.7469C83.4737 61.4866 82.9378 61.3126 82.3788 61.2347Z" fill="#2C3E54"/>
</svg>
