<svg width="24px"  height="24px"  viewBox="0 0 25 25" fill="none" xmlns="http://www.w3.org/2000/svg">
<path fill-rule="evenodd" clip-rule="evenodd" d="M17.2036 4.263V2.66C17.2036 2.246 16.8676 1.91 16.4536 1.91C16.0396 1.91 15.7036 2.246 15.7036 2.66V5.923C15.7036 6.183 15.8446 6.402 16.0466 6.536C15.9276 6.616 15.7926 6.673 15.6386 6.673C15.2246 6.673 14.8886 6.337 14.8886 5.923V3.757C14.0866 3.661 13.2126 3.612 12.2496 3.612C11.1156 3.612 10.1046 3.68 9.19559 3.817V2.66C9.19559 2.246 8.85959 1.91 8.44559 1.91C8.03159 1.91 7.69559 2.246 7.69559 2.66V5.923C7.69559 6.183 7.83659 6.402 8.03859 6.536C7.91959 6.616 7.78459 6.673 7.63059 6.673C7.21659 6.673 6.88059 6.337 6.88059 5.923V4.393C4.74659 5.216 3.49459 6.747 2.90259 9.185H21.5976C20.9696 6.599 19.5816 5.047 17.2036 4.263Z" fill="#316E83" />
<path fill-rule="evenodd" clip-rule="evenodd" d="M16.6626 14.6214C16.2486 14.6214 15.9086 14.2854 15.9086 13.8714C15.9086 13.4574 16.2396 13.1214 16.6536 13.1214H16.6626C17.0766 13.1214 17.4126 13.4574 17.4126 13.8714C17.4126 14.2854 17.0766 14.6214 16.6626 14.6214ZM16.6626 18.4744C16.2486 18.4744 15.9086 18.1384 15.9086 17.7244C15.9086 17.3094 16.2396 16.9744 16.6536 16.9744H16.6626C17.0766 16.9744 17.4126 17.3094 17.4126 17.7244C17.4126 18.1384 17.0766 18.4744 16.6626 18.4744ZM12.2636 14.6214C11.8496 14.6214 11.5086 14.2854 11.5086 13.8714C11.5086 13.4574 11.8406 13.1214 12.2546 13.1214H12.2636C12.6776 13.1214 13.0136 13.4574 13.0136 13.8714C13.0136 14.2854 12.6776 14.6214 12.2636 14.6214ZM12.2636 18.4744C11.8496 18.4744 11.5086 18.1384 11.5086 17.7244C11.5086 17.3094 11.8406 16.9744 12.2546 16.9744H12.2636C12.6776 16.9744 13.0136 17.3094 13.0136 17.7244C13.0136 18.1384 12.6776 18.4744 12.2636 18.4744ZM7.85559 14.6214C7.44159 14.6214 7.10059 14.2854 7.10059 13.8714C7.10059 13.4574 7.43259 13.1214 7.84659 13.1214H7.85559C8.26959 13.1214 8.60559 13.4574 8.60559 13.8714C8.60559 14.2854 8.26959 14.6214 7.85559 14.6214ZM7.85559 18.4744C7.44159 18.4744 7.10059 18.1384 7.10059 17.7244C7.10059 17.3094 7.43259 16.9744 7.84659 16.9744H7.85559C8.26959 16.9744 8.60559 17.3094 8.60559 17.7244C8.60559 18.1384 8.26959 18.4744 7.85559 18.4744ZM21.8696 10.6844H2.63059C2.52859 11.5044 2.47559 12.3974 2.47559 13.3864C2.47559 20.6014 5.03359 23.1594 12.2496 23.1594C19.4666 23.1594 22.0246 20.6014 22.0246 13.3864C22.0246 12.3974 21.9716 11.5044 21.8696 10.6844Z" fill="#316E83" />
</svg>