<svg width="24px"  height="24px"  viewBox="0 0 25 25" fill="none" xmlns="http://www.w3.org/2000/svg">
<path fill-rule="evenodd" clip-rule="evenodd" d="M16.0596 9.3485C15.0136 9.1055 13.7526 8.9945 12.2496 8.9945C10.7466 8.9945 9.4856 9.1055 8.4396 9.3485V7.9165C8.4726 5.8425 10.1236 4.1975 12.1996 4.1705C13.2306 4.1425 14.1816 4.5425 14.9106 5.2535C15.6386 5.9645 16.0476 6.9155 16.0596 7.9245V9.3485ZM12.9996 17.0475C12.9996 17.4615 12.6636 17.7975 12.2496 17.7975C11.8356 17.7975 11.4996 17.4615 11.4996 17.0475V14.8265C11.4996 14.4125 11.8356 14.0765 12.2496 14.0765C12.6636 14.0765 12.9996 14.4125 12.9996 14.8265V17.0475ZM17.5596 9.8615V7.9155C17.5416 6.4965 16.9736 5.1695 15.9566 4.1795C14.9416 3.1895 13.5876 2.6985 12.1796 2.6705C9.2886 2.7075 6.9866 5.0015 6.9396 7.9055V9.8625C4.9056 10.8325 4.0896 12.6835 4.0896 15.7655C4.0896 20.7655 6.2256 22.5375 12.2496 22.5375C18.2746 22.5375 20.4106 20.7655 20.4106 15.7655C20.4106 12.6835 19.5936 10.8315 17.5596 9.8615Z" fill="#316E83" />
</svg>