<svg width="24px"  height="24px"  viewBox="0 0 25 24" fill="none" xmlns="http://www.w3.org/2000/svg">
<path fill-rule="evenodd" clip-rule="evenodd" d="M22.4202 11.5898L19.4922 8.67383C19.1982 8.38183 18.7242 8.38183 18.4322 8.67583C18.1402 8.96983 18.1412 9.44383 18.4342 9.73583L20.0742 11.3698H17.1392C17.1492 11.8698 17.1492 12.3698 17.1392 12.8698H20.0762L18.4342 14.5058C18.1412 14.7978 18.1402 15.2728 18.4322 15.5668C18.5782 15.7138 18.7712 15.7868 18.9632 15.7868C19.1542 15.7868 19.3462 15.7138 19.4922 15.5688L22.4202 12.6518C22.5622 12.5118 22.6412 12.3198 22.6412 12.1208C22.6412 11.9218 22.5622 11.7308 22.4202 11.5898Z" fill="#316E83" />
<path fill-rule="evenodd" clip-rule="evenodd" d="M8.88889 12.12C8.88889 11.71 9.21889 11.37 9.63889 11.37L17.1392 11.3698C17.1292 10.1098 17.0589 8.85 16.9589 7.59V7.58C16.5889 3.55 14.7589 2.25 9.45889 2.25C1.85889 2.25 1.85889 5.1 1.85889 12C1.85889 18.9 1.85889 21.75 9.45889 21.75C14.7589 21.75 16.5889 20.45 16.9589 16.41C17.0589 15.24 17.1192 14.0598 17.1392 12.8698L9.63889 12.87C9.21889 12.87 8.88889 12.54 8.88889 12.12Z" fill="#316E83" />
</svg>