<svg width="24px"  height="24px"  viewBox="0 0 25 24" fill="none" xmlns="http://www.w3.org/2000/svg">
<path d="M21.245 6.64688C21.245 8.65821 19.6145 10.2887 17.6032 10.2887C15.5918 10.2887 13.9613 8.65821 13.9613 6.64688C13.9613 4.63554 15.5918 3.00504 17.6032 3.00504C19.6145 3.00504 21.245 4.63554 21.245 6.64688Z" fill="#316E83" />
<path d="M10.5388 6.64688C10.5388 8.65821 8.90831 10.2887 6.89697 10.2887C4.88564 10.2887 3.25513 8.65821 3.25513 6.64688C3.25513 4.63554 4.88564 3.00504 6.89697 3.00504C8.90831 3.00504 10.5388 4.63554 10.5388 6.64688Z" fill="#316E83" />
<path d="M21.245 17.3531C21.245 19.3645 19.6145 20.995 17.6032 20.995C15.5918 20.995 13.9613 19.3645 13.9613 17.3531C13.9613 15.3418 15.5918 13.7113 17.6032 13.7113C19.6145 13.7113 21.245 15.3418 21.245 17.3531Z" fill="#316E83" />
<path d="M10.5388 17.3531C10.5388 19.3645 8.90831 20.995 6.89697 20.995C4.88564 20.995 3.25513 19.3645 3.25513 17.3531C3.25513 15.3418 4.88564 13.7113 6.89697 13.7113C8.90831 13.7113 10.5388 15.3418 10.5388 17.3531Z" fill="#316E83" />
</svg>