<svg width="24px"  height="24px"  viewBox="0 0 25 25" fill="none" xmlns="http://www.w3.org/2000/svg">
<path fill-rule="evenodd" clip-rule="evenodd" d="M18.3951 10.0647C18.0431 10.4867 14.8841 14.1877 12.2611 14.1877C9.64107 14.1877 6.45007 10.4897 6.09407 10.0677C5.82807 9.75066 5.86807 9.27766 6.18507 9.01066C6.50107 8.74266 6.97407 8.78466 7.24107 9.10066C8.41207 10.4877 10.8091 12.6877 12.2611 12.6877C13.7121 12.6877 16.0871 10.4897 17.2431 9.10366C17.5081 8.78666 17.9811 8.74466 18.2991 9.00766C18.6171 9.27366 18.6601 9.74666 18.3951 10.0647ZM12.2501 2.91766C4.84907 2.91766 2.22607 5.43366 2.22607 12.5347C2.22607 19.6347 4.84907 22.1517 12.2501 22.1517C19.6511 22.1517 22.2741 19.6347 22.2741 12.5347C22.2741 5.43366 19.6511 2.91766 12.2501 2.91766Z" fill="#316E83" />
</svg>