<svg width="24px"  height="24px"  viewBox="0 0 25 24" fill="none" xmlns="http://www.w3.org/2000/svg">
<path fill-rule="evenodd" clip-rule="evenodd" d="M19.8774 13.9624C19.0304 12.0994 19.0524 11.3984 19.0914 10.1244C19.1014 9.82336 19.1114 9.49636 19.1114 9.12136C19.1114 6.14436 16.9824 1.95135 12.2504 1.95135C7.51836 1.95135 5.38936 6.14436 5.38936 9.12136C5.38936 9.49536 5.39936 9.82336 5.40936 10.1244C5.44836 11.3984 5.46936 12.0994 4.61336 13.9874C4.24736 14.9314 4.29136 15.7464 4.74636 16.4104C5.83836 18.0084 8.99836 18.2284 12.2504 18.2284C15.5024 18.2284 18.6624 18.0084 19.7544 16.4104C20.2104 15.7464 20.2544 14.9314 19.8774 13.9624Z" fill="#316E83" />
<path fill-rule="evenodd" clip-rule="evenodd" d="M14.9477 19.2406C13.3167 19.4216 11.5487 19.4206 9.53865 19.2386C9.23765 19.2146 8.93965 19.3736 8.80165 19.6486C8.66265 19.9246 8.70665 20.2556 8.91165 20.4856C9.81165 21.4926 10.9957 22.0486 12.2457 22.0486H12.2477C13.5007 22.0486 14.6877 21.4936 15.5897 20.4856C15.7967 20.2546 15.8397 19.9186 15.6977 19.6416C15.5547 19.3666 15.2607 19.2126 14.9477 19.2406Z" fill="#316E83" />
</svg>