<svg width="24px"  height="24px"  viewBox="0 0 25 24" fill="none" xmlns="http://www.w3.org/2000/svg">
<path fill-rule="evenodd" clip-rule="evenodd" d="M17.26 8.674C15.614 8.674 14.27 7.34 14.27 5.694V3.652L19.552 8.674H17.26ZM14.088 16.292H8.68898C8.27498 16.292 7.93898 15.956 7.93898 15.542C7.93898 15.128 8.27498 14.792 8.68898 14.792H14.088C14.503 14.792 14.838 15.128 14.838 15.542C14.838 15.956 14.503 16.292 14.088 16.292ZM8.68698 10.781H12.043C12.457 10.781 12.793 11.117 12.793 11.531C12.793 11.946 12.457 12.281 12.043 12.281H8.68698C8.27298 12.281 7.93698 11.946 7.93698 11.531C7.93698 11.117 8.27298 10.781 8.68698 10.781ZM20.955 8.85C20.955 8.81 20.955 8.78 20.945 8.74C20.915 8.56 20.885 8.38 20.855 8.21C20.835 8.1 20.785 8.01 20.705 7.93L15.035 2.53C14.965 2.46 14.865 2.41 14.765 2.4C14.595 2.38 14.415 2.36 14.235 2.34C14.205 2.33 14.165 2.33 14.135 2.33C13.555 2.28 12.915 2.25 12.245 2.25C5.68498 2.25 3.35498 4.8 3.35498 12C3.35498 19.19 5.68498 21.75 12.245 21.75C18.815 21.75 21.145 19.19 21.145 12C21.145 10.8 21.085 9.76 20.955 8.85Z" fill="#316E83" />
</svg>