<svg width="24px"  height="24px"  viewBox="0 0 25 24" fill="none" xmlns="http://www.w3.org/2000/svg">
<path fill-rule="evenodd" clip-rule="evenodd" d="M21.7158 2.74134C21.6688 2.65334 21.5978 2.58134 21.5098 2.53434C19.4238 1.42434 6.94482 5.29234 3.71682 7.15434C2.87582 7.63934 2.50082 8.20934 2.60382 8.84534C2.90082 10.6873 7.86382 12.0833 10.5568 12.7083L15.6138 7.65234C15.9068 7.35934 16.3818 7.35934 16.6748 7.65234C16.9678 7.94534 16.9678 8.42034 16.6748 8.71334L11.5688 13.8173C12.2098 16.5383 13.5908 21.3533 15.4038 21.6453C15.4718 21.6563 15.5398 21.6623 15.6068 21.6623C16.1608 21.6623 16.6608 21.2823 17.0938 20.5323C18.9558 17.3073 22.8268 4.83034 21.7158 2.74134Z" fill="#316E83" />
</svg>