<svg width="24px"  height="24px"  viewBox="0 0 25 24" fill="none" xmlns="http://www.w3.org/2000/svg">
<path fill-rule="evenodd" clip-rule="evenodd" d="M12.2499 15C10.5959 15 9.24989 13.654 9.24989 12C9.24989 10.346 10.5959 9 12.2499 9C13.9039 9 15.2499 10.346 15.2499 12C15.2499 13.654 13.9039 15 12.2499 15ZM19.7639 12.914C19.4369 12.723 19.2409 12.382 19.2409 12C19.2409 11.618 19.4369 11.277 19.7649 11.087C21.1829 10.262 21.6699 8.43 20.8519 7.001C20.4529 6.307 19.8099 5.811 19.0399 5.604C18.2739 5.401 17.4739 5.507 16.7879 5.906C16.4639 6.096 16.0769 6.096 15.7509 5.907C15.4209 5.718 15.2239 5.375 15.2239 4.992C15.2239 3.343 13.8899 2 12.2499 2C10.6089 2 9.27489 3.343 9.27489 4.992C9.27489 5.376 9.07789 5.718 8.74789 5.908C8.42389 6.094 8.03689 6.096 7.71289 5.906C7.02489 5.507 6.22589 5.399 5.45789 5.605C4.68789 5.812 4.04589 6.308 3.64789 7.002C2.82989 8.431 3.31789 10.263 4.73589 11.086C5.06289 11.276 5.25789 11.618 5.25789 12C5.25789 12.382 5.06289 12.724 4.73589 12.913C3.31789 13.738 2.82989 15.571 3.64789 16.999C4.04589 17.692 4.68789 18.188 5.45689 18.395C6.22389 18.6 7.02489 18.494 7.71289 18.095C8.03589 17.905 8.42289 17.905 8.74789 18.092C9.07789 18.282 9.27489 18.624 9.27489 19.008C9.27489 20.657 10.6089 22 12.2499 22C13.8899 22 15.2239 20.657 15.2239 19.008C15.2239 18.625 15.4209 18.282 15.7509 18.093C16.0759 17.905 16.4629 17.905 16.7879 18.095C17.4749 18.494 18.2749 18.598 19.0399 18.396C19.8099 18.189 20.4529 17.693 20.8519 16.999C21.6699 15.571 21.1829 13.739 19.7639 12.914Z" fill="#316E83" />
</svg>