<svg width="24px"  height="24px"  viewBox="0 0 25 25" fill="none" xmlns="http://www.w3.org/2000/svg">
<path fill-rule="evenodd" clip-rule="evenodd" d="M12.25 10.1917C10.92 10.1917 9.83804 11.2737 9.83804 12.6037C9.83804 13.9337 10.92 15.0157 12.25 15.0157C13.58 15.0157 14.662 13.9337 14.662 12.6037C14.662 11.2737 13.58 10.1917 12.25 10.1917Z" fill="#316E83" />
<path fill-rule="evenodd" clip-rule="evenodd" d="M12.25 16.516C10.093 16.516 8.33805 14.761 8.33805 12.604C8.33805 10.447 10.093 8.692 12.25 8.692C14.407 8.692 16.162 10.447 16.162 12.604C16.162 14.761 14.407 16.516 12.25 16.516ZM12.25 4.802C6.84805 4.802 2.49805 9.07 2.49805 12.604C2.49805 16.138 6.84805 20.406 12.25 20.406C17.652 20.406 22.002 16.138 22.002 12.604C22.002 9.07 17.652 4.802 12.25 4.802Z" fill="#316E83" />
</svg>