<svg width="24px"  height="24px"  viewBox="0 0 25 24" fill="none" xmlns="http://www.w3.org/2000/svg">
<path fill-rule="evenodd" clip-rule="evenodd" d="M18.4105 11.8001C18.4105 12.2141 18.0745 12.5501 17.6605 12.5501C17.2465 12.5501 16.9105 12.2141 16.9105 11.8001C16.9105 11.3861 17.2465 11.0501 17.6605 11.0501C18.0745 11.0501 18.4105 11.3861 18.4105 11.8001ZM15.7075 11.8601C15.7075 12.8591 16.5215 13.6721 17.5205 13.6721H21.9805C22.0225 13.1441 22.0505 12.5951 22.0505 12.0001C22.0505 11.2981 22.0155 10.6551 21.9565 10.0461H17.5205C16.5215 10.0461 15.7075 10.8601 15.7075 11.8601Z" fill="#316E83" />
<path fill-rule="evenodd" clip-rule="evenodd" d="M11.9017 8.641H7.84171C7.42771 8.641 7.09171 8.305 7.09171 7.891C7.09171 7.477 7.42771 7.141 7.84171 7.141H11.9017C12.3157 7.141 12.6517 7.477 12.6517 7.891C12.6517 8.305 12.3157 8.641 11.9017 8.641ZM17.5207 15.172C15.6937 15.172 14.2077 13.686 14.2077 11.86C14.2077 10.033 15.6937 8.546 17.5207 8.546H21.7307C20.8527 4.492 18.0597 2.961 12.2507 2.961C5.01471 2.961 2.44971 5.327 2.44971 12C2.44971 18.674 5.01471 21.039 12.2507 21.039C18.1927 21.039 20.9807 19.439 21.7887 15.172H17.5207Z" fill="#316E83" />
</svg>